<?xml version="1.0" encoding="UTF-8"?>
<!-- Frange du bloc Geôlier (Figma 239:49164) — pixels charbon rongeant le bord
     du bandeau orange. Répétée en X ; scaleY(-1) pour le bord bas. -->
<svg xmlns="http://www.w3.org/2000/svg" width="390" height="9" viewBox="0 0 390 9">
<g fill="#1c1a16" shape-rendering="crispEdges">
<rect x="0" y="0" width="3" height="3"/>
<rect x="3" y="0" width="3" height="3"/>
<rect x="6" y="0" width="3" height="3"/>
<rect x="12" y="0" width="3" height="3"/>
<rect x="15" y="0" width="3" height="3"/>
<rect x="18" y="0" width="3" height="3"/>
<rect x="21" y="0" width="3" height="3"/>
<rect x="24" y="0" width="3" height="3"/>
<rect x="27" y="0" width="3" height="3"/>
<rect x="30" y="0" width="3" height="3"/>
<rect x="33" y="0" width="3" height="3"/>
<rect x="36" y="0" width="3" height="3"/>
<rect x="39" y="0" width="3" height="3"/>
<rect x="42" y="0" width="3" height="3"/>
<rect x="45" y="0" width="3" height="3"/>
<rect x="48" y="0" width="3" height="3"/>
<rect x="51" y="0" width="3" height="3"/>
<rect x="54" y="0" width="3" height="3"/>
<rect x="57" y="0" width="3" height="3"/>
<rect x="60" y="0" width="3" height="3"/>
<rect x="63" y="0" width="3" height="3"/>
<rect x="66" y="0" width="3" height="3"/>
<rect x="69" y="0" width="3" height="3"/>
<rect x="72" y="0" width="3" height="3"/>
<rect x="75" y="0" width="3" height="3"/>
<rect x="78" y="0" width="3" height="3"/>
<rect x="81" y="0" width="3" height="3"/>
<rect x="84" y="0" width="3" height="3"/>
<rect x="87" y="0" width="3" height="3"/>
<rect x="90" y="0" width="3" height="3"/>
<rect x="96" y="0" width="3" height="3"/>
<rect x="99" y="0" width="3" height="3"/>
<rect x="102" y="0" width="3" height="3"/>
<rect x="105" y="0" width="3" height="3"/>
<rect x="108" y="0" width="3" height="3"/>
<rect x="111" y="0" width="3" height="3"/>
<rect x="114" y="0" width="3" height="3"/>
<rect x="117" y="0" width="3" height="3"/>
<rect x="120" y="0" width="3" height="3"/>
<rect x="126" y="0" width="3" height="3"/>
<rect x="129" y="0" width="3" height="3"/>
<rect x="132" y="0" width="3" height="3"/>
<rect x="135" y="0" width="3" height="3"/>
<rect x="138" y="0" width="3" height="3"/>
<rect x="141" y="0" width="3" height="3"/>
<rect x="147" y="0" width="3" height="3"/>
<rect x="150" y="0" width="3" height="3"/>
<rect x="153" y="0" width="3" height="3"/>
<rect x="159" y="0" width="3" height="3"/>
<rect x="162" y="0" width="3" height="3"/>
<rect x="165" y="0" width="3" height="3"/>
<rect x="168" y="0" width="3" height="3"/>
<rect x="171" y="0" width="3" height="3"/>
<rect x="174" y="0" width="3" height="3"/>
<rect x="177" y="0" width="3" height="3"/>
<rect x="180" y="0" width="3" height="3"/>
<rect x="183" y="0" width="3" height="3"/>
<rect x="186" y="0" width="3" height="3"/>
<rect x="189" y="0" width="3" height="3"/>
<rect x="192" y="0" width="3" height="3"/>
<rect x="195" y="0" width="3" height="3"/>
<rect x="198" y="0" width="3" height="3"/>
<rect x="201" y="0" width="3" height="3"/>
<rect x="204" y="0" width="3" height="3"/>
<rect x="207" y="0" width="3" height="3"/>
<rect x="210" y="0" width="3" height="3"/>
<rect x="213" y="0" width="3" height="3"/>
<rect x="216" y="0" width="3" height="3"/>
<rect x="219" y="0" width="3" height="3"/>
<rect x="222" y="0" width="3" height="3"/>
<rect x="225" y="0" width="3" height="3"/>
<rect x="228" y="0" width="3" height="3"/>
<rect x="231" y="0" width="3" height="3"/>
<rect x="234" y="0" width="3" height="3"/>
<rect x="240" y="0" width="3" height="3"/>
<rect x="243" y="0" width="3" height="3"/>
<rect x="246" y="0" width="3" height="3"/>
<rect x="252" y="0" width="3" height="3"/>
<rect x="255" y="0" width="3" height="3"/>
<rect x="258" y="0" width="3" height="3"/>
<rect x="261" y="0" width="3" height="3"/>
<rect x="264" y="0" width="3" height="3"/>
<rect x="267" y="0" width="3" height="3"/>
<rect x="270" y="0" width="3" height="3"/>
<rect x="273" y="0" width="3" height="3"/>
<rect x="276" y="0" width="3" height="3"/>
<rect x="279" y="0" width="3" height="3"/>
<rect x="282" y="0" width="3" height="3"/>
<rect x="285" y="0" width="3" height="3"/>
<rect x="291" y="0" width="3" height="3"/>
<rect x="294" y="0" width="3" height="3"/>
<rect x="297" y="0" width="3" height="3"/>
<rect x="303" y="0" width="3" height="3"/>
<rect x="306" y="0" width="3" height="3"/>
<rect x="309" y="0" width="3" height="3"/>
<rect x="315" y="0" width="3" height="3"/>
<rect x="318" y="0" width="3" height="3"/>
<rect x="324" y="0" width="3" height="3"/>
<rect x="327" y="0" width="3" height="3"/>
<rect x="330" y="0" width="3" height="3"/>
<rect x="336" y="0" width="3" height="3"/>
<rect x="339" y="0" width="3" height="3"/>
<rect x="342" y="0" width="3" height="3"/>
<rect x="345" y="0" width="3" height="3"/>
<rect x="348" y="0" width="3" height="3"/>
<rect x="354" y="0" width="3" height="3"/>
<rect x="357" y="0" width="3" height="3"/>
<rect x="360" y="0" width="3" height="3"/>
<rect x="366" y="0" width="3" height="3"/>
<rect x="369" y="0" width="3" height="3"/>
<rect x="372" y="0" width="3" height="3"/>
<rect x="375" y="0" width="3" height="3"/>
<rect x="378" y="0" width="3" height="3"/>
<rect x="381" y="0" width="3" height="3"/>
<rect x="384" y="0" width="3" height="3"/>
<rect x="387" y="0" width="3" height="3"/>
<rect x="3" y="3" width="3" height="3"/>
<rect x="6" y="3" width="3" height="3"/>
<rect x="9" y="3" width="3" height="3"/>
<rect x="12" y="3" width="3" height="3"/>
<rect x="18" y="3" width="3" height="3"/>
<rect x="21" y="3" width="3" height="3"/>
<rect x="27" y="3" width="3" height="3"/>
<rect x="30" y="3" width="3" height="3"/>
<rect x="39" y="3" width="3" height="3"/>
<rect x="45" y="3" width="3" height="3"/>
<rect x="78" y="3" width="3" height="3"/>
<rect x="84" y="3" width="3" height="3"/>
<rect x="87" y="3" width="3" height="3"/>
<rect x="90" y="3" width="3" height="3"/>
<rect x="93" y="3" width="3" height="3"/>
<rect x="96" y="3" width="3" height="3"/>
<rect x="102" y="3" width="3" height="3"/>
<rect x="108" y="3" width="3" height="3"/>
<rect x="111" y="3" width="3" height="3"/>
<rect x="117" y="3" width="3" height="3"/>
<rect x="120" y="3" width="3" height="3"/>
<rect x="129" y="3" width="3" height="3"/>
<rect x="135" y="3" width="3" height="3"/>
<rect x="141" y="3" width="3" height="3"/>
<rect x="144" y="3" width="3" height="3"/>
<rect x="147" y="3" width="3" height="3"/>
<rect x="153" y="3" width="3" height="3"/>
<rect x="159" y="3" width="3" height="3"/>
<rect x="171" y="3" width="3" height="3"/>
<rect x="174" y="3" width="3" height="3"/>
<rect x="177" y="3" width="3" height="3"/>
<rect x="189" y="3" width="3" height="3"/>
<rect x="201" y="3" width="3" height="3"/>
<rect x="204" y="3" width="3" height="3"/>
<rect x="207" y="3" width="3" height="3"/>
<rect x="210" y="3" width="3" height="3"/>
<rect x="216" y="3" width="3" height="3"/>
<rect x="222" y="3" width="3" height="3"/>
<rect x="228" y="3" width="3" height="3"/>
<rect x="234" y="3" width="3" height="3"/>
<rect x="240" y="3" width="3" height="3"/>
<rect x="243" y="3" width="3" height="3"/>
<rect x="246" y="3" width="3" height="3"/>
<rect x="258" y="3" width="3" height="3"/>
<rect x="264" y="3" width="3" height="3"/>
<rect x="279" y="3" width="3" height="3"/>
<rect x="288" y="3" width="3" height="3"/>
<rect x="300" y="3" width="3" height="3"/>
<rect x="306" y="3" width="3" height="3"/>
<rect x="315" y="3" width="3" height="3"/>
<rect x="318" y="3" width="3" height="3"/>
<rect x="321" y="3" width="3" height="3"/>
<rect x="327" y="3" width="3" height="3"/>
<rect x="330" y="3" width="3" height="3"/>
<rect x="333" y="3" width="3" height="3"/>
<rect x="336" y="3" width="3" height="3"/>
<rect x="339" y="3" width="3" height="3"/>
<rect x="348" y="3" width="3" height="3"/>
<rect x="354" y="3" width="3" height="3"/>
<rect x="357" y="3" width="3" height="3"/>
<rect x="363" y="3" width="3" height="3"/>
<rect x="366" y="3" width="3" height="3"/>
<rect x="369" y="3" width="3" height="3"/>
<rect x="372" y="3" width="3" height="3"/>
<rect x="378" y="3" width="3" height="3"/>
<rect x="381" y="3" width="3" height="3"/>
<rect x="384" y="3" width="3" height="3"/>
<rect x="387" y="3" width="3" height="3"/>
<rect x="3" y="6" width="3" height="3"/>
<rect x="15" y="6" width="3" height="3"/>
<rect x="18" y="6" width="3" height="3"/>
<rect x="21" y="6" width="3" height="3"/>
<rect x="36" y="6" width="3" height="3"/>
<rect x="57" y="6" width="3" height="3"/>
<rect x="72" y="6" width="3" height="3"/>
<rect x="75" y="6" width="3" height="3"/>
<rect x="102" y="6" width="3" height="3"/>
<rect x="117" y="6" width="3" height="3"/>
<rect x="132" y="6" width="3" height="3"/>
<rect x="159" y="6" width="3" height="3"/>
<rect x="168" y="6" width="3" height="3"/>
<rect x="174" y="6" width="3" height="3"/>
<rect x="180" y="6" width="3" height="3"/>
<rect x="195" y="6" width="3" height="3"/>
<rect x="198" y="6" width="3" height="3"/>
<rect x="204" y="6" width="3" height="3"/>
<rect x="210" y="6" width="3" height="3"/>
<rect x="216" y="6" width="3" height="3"/>
<rect x="225" y="6" width="3" height="3"/>
<rect x="246" y="6" width="3" height="3"/>
<rect x="249" y="6" width="3" height="3"/>
<rect x="273" y="6" width="3" height="3"/>
<rect x="312" y="6" width="3" height="3"/>
<rect x="315" y="6" width="3" height="3"/>
<rect x="360" y="6" width="3" height="3"/>
<rect x="363" y="6" width="3" height="3"/>
</g>
</svg>
